<svg width="142" height="19" viewBox="0 0 142 19" fill="none" xmlns="http://www.w3.org/2000/svg">
<path d="M9.08 18L5.576 11.64H4.592V18H0.488V1.152H7.376C8.704 1.152 9.832 1.384 10.76 1.848C11.704 2.312 12.408 2.952 12.872 3.768C13.336 4.568 13.568 5.464 13.568 6.456C13.568 7.576 13.248 8.576 12.608 9.456C11.984 10.336 11.056 10.96 9.824 11.328L13.712 18H9.08ZM4.592 8.736H7.136C7.888 8.736 8.448 8.552 8.816 8.184C9.2 7.816 9.392 7.296 9.392 6.624C9.392 5.984 9.2 5.48 8.816 5.112C8.448 4.744 7.888 4.56 7.136 4.56H4.592V8.736ZM20.2483 4.44V7.848H25.7443V11.016H20.2483V14.712H26.4643V18H16.1443V1.152H26.4643V4.44H20.2483ZM33.2326 4.44V7.848H38.7286V11.016H33.2326V14.712H39.4486V18H29.1286V1.152H39.4486V4.44H33.2326ZM48.425 1.152C50.201 1.152 51.753 1.504 53.081 2.208C54.409 2.912 55.433 3.904 56.153 5.184C56.889 6.448 57.257 7.912 57.257 9.576C57.257 11.224 56.889 12.688 56.153 13.968C55.433 15.248 54.401 16.24 53.057 16.944C51.729 17.648 50.185 18 48.425 18H42.113V1.152H48.425ZM48.161 14.448C49.713 14.448 50.921 14.024 51.785 13.176C52.649 12.328 53.081 11.128 53.081 9.576C53.081 8.024 52.649 6.816 51.785 5.952C50.921 5.088 49.713 4.656 48.161 4.656H46.217V14.448H48.161ZM61.4705 18.192C60.7505 18.192 60.1585 17.984 59.6945 17.568C59.2465 17.136 59.0225 16.608 59.0225 15.984C59.0225 15.344 59.2465 14.808 59.6945 14.376C60.1585 13.944 60.7505 13.728 61.4705 13.728C62.1745 13.728 62.7505 13.944 63.1985 14.376C63.6625 14.808 63.8945 15.344 63.8945 15.984C63.8945 16.608 63.6625 17.136 63.1985 17.568C62.7505 17.984 62.1745 18.192 61.4705 18.192Z" fill="#081351"/>
<path d="M65.6279 9.552C65.6279 7.888 65.9879 6.408 66.7079 5.112C67.4279 3.8 68.4279 2.784 69.7079 2.064C71.0039 1.328 72.4679 0.959999 74.0999 0.959999C76.0999 0.959999 77.8119 1.488 79.2359 2.544C80.6599 3.6 81.6119 5.04 82.0919 6.864H77.5799C77.2439 6.16 76.7639 5.624 76.1399 5.256C75.5319 4.888 74.8359 4.704 74.0519 4.704C72.7879 4.704 71.7639 5.144 70.9799 6.024C70.1959 6.904 69.8039 8.08 69.8039 9.552C69.8039 11.024 70.1959 12.2 70.9799 13.08C71.7639 13.96 72.7879 14.4 74.0519 14.4C74.8359 14.4 75.5319 14.216 76.1399 13.848C76.7639 13.48 77.2439 12.944 77.5799 12.24H82.0919C81.6119 14.064 80.6599 15.504 79.2359 16.56C77.8119 17.6 76.0999 18.12 74.0999 18.12C72.4679 18.12 71.0039 17.76 69.7079 17.04C68.4279 16.304 67.4279 15.288 66.7079 13.992C65.9879 12.696 65.6279 11.216 65.6279 9.552ZM92.5732 18.168C90.9892 18.168 89.5332 17.8 88.2052 17.064C86.8932 16.328 85.8452 15.304 85.0612 13.992C84.2932 12.664 83.9092 11.176 83.9092 9.528C83.9092 7.88 84.2932 6.4 85.0612 5.088C85.8452 3.776 86.8932 2.752 88.2052 2.016C89.5332 1.28 90.9892 0.912 92.5732 0.912C94.1572 0.912 95.6052 1.28 96.9172 2.016C98.2452 2.752 99.2852 3.776 100.037 5.088C100.805 6.4 101.189 7.88 101.189 9.528C101.189 11.176 100.805 12.664 100.037 13.992C99.2692 15.304 98.2292 16.328 96.9172 17.064C95.6052 17.8 94.1572 18.168 92.5732 18.168ZM92.5732 14.424C93.9172 14.424 94.9892 13.976 95.7892 13.08C96.6052 12.184 97.0132 11 97.0132 9.528C97.0132 8.04 96.6052 6.856 95.7892 5.976C94.9892 5.08 93.9172 4.632 92.5732 4.632C91.2132 4.632 90.1252 5.072 89.3092 5.952C88.5092 6.832 88.1092 8.024 88.1092 9.528C88.1092 11.016 88.5092 12.208 89.3092 13.104C90.1252 13.984 91.2132 14.424 92.5732 14.424ZM105.392 18.192C104.672 18.192 104.08 17.984 103.616 17.568C103.168 17.136 102.944 16.608 102.944 15.984C102.944 15.344 103.168 14.808 103.616 14.376C104.08 13.944 104.672 13.728 105.392 13.728C106.096 13.728 106.672 13.944 107.12 14.376C107.584 14.808 107.816 15.344 107.816 15.984C107.816 16.608 107.584 17.136 107.12 17.568C106.672 17.984 106.096 18.192 105.392 18.192ZM114.278 1.152V11.232C114.278 12.24 114.526 13.016 115.022 13.56C115.518 14.104 116.246 14.376 117.206 14.376C118.166 14.376 118.902 14.104 119.414 13.56C119.926 13.016 120.182 12.24 120.182 11.232V1.152H124.286V11.208C124.286 12.712 123.966 13.984 123.326 15.024C122.686 16.064 121.822 16.848 120.734 17.376C119.662 17.904 118.462 18.168 117.134 18.168C115.806 18.168 114.614 17.912 113.558 17.4C112.518 16.872 111.694 16.088 111.086 15.048C110.478 13.992 110.174 12.712 110.174 11.208V1.152H114.278ZM136.936 18L131.272 10.56V18H127.168V1.152H131.272V8.544L136.888 1.152H141.712L135.184 9.408L141.952 18H136.936Z" fill="#005FB2"/>
</svg>
